<?xml version="1.0" encoding="utf-8"?>
<!-- Generator: Adobe Illustrator 23.0.0, SVG Export Plug-In . SVG Version: 6.00 Build 0)  -->
<svg version="1.1" id="Layer_1" xmlns="http://www.w3.org/2000/svg" xmlns:xlink="http://www.w3.org/1999/xlink" x="0px" y="0px"
	 viewBox="0 0 36 32" style="enable-background:new 0 0 36 32;" xml:space="preserve">
<style type="text/css">
	.st0{fill:#FDB71B;}
	.st1{fill:#1D2754;}
</style>
<g>
	<path class="st0" d="M26.5,31h6.8c1.4,0,2.3-1.6,1.5-2.9L19.6,1.9c-0.7-1.2-2.4-1.1-3.1,0.1L11,11.5c-0.9,1.7,0.1,3.3,1.9,2.5
		l0.3-0.2c1.4-0.7,2.2,0,2.7,0.8L25,30.2C25.3,30.7,25.9,31,26.5,31z"/>
	<path class="st1" d="M14.6,31h-12c-1.3,0-2.1-1.5-1.4-2.6l6-10.4c0.6-1,2-1,2.7-0.1l6,10.4C16.7,29.5,15.9,31,14.6,31z"/>
</g>
</svg>
